<svg xmlns="http://www.w3.org/2000/svg" width="1400" height="420" viewBox="0 0 1400 420">
  <defs>
    <linearGradient id="hatg" x1="0" y1="0" x2="1" y2="1">
      <stop offset="0" stop-color="#f0d489"/><stop offset="0.45" stop-color="#ca9827"/><stop offset="1" stop-color="#95701a"/>
    </linearGradient>
    <linearGradient id="hatshade" x1="0" y1="0" x2="1" y2="0">
      <stop offset="0" stop-color="#8a6716" stop-opacity="0.55"/><stop offset="1" stop-color="#8a6716" stop-opacity="0"/>
    </linearGradient>
    <linearGradient id="bandg" x1="0" y1="0" x2="1" y2="0">
      <stop offset="0" stop-color="#10182b"/><stop offset="0.5" stop-color="#2c3a5c"/><stop offset="1" stop-color="#182238"/>
    </linearGradient>
    <linearGradient id="brimg" x1="0" y1="0" x2="0" y2="1">
      <stop offset="0" stop-color="#e8c977"/><stop offset="0.6" stop-color="#c1922a"/><stop offset="1" stop-color="#8f6b18"/>
    </linearGradient>
  </defs>
  <g transform="translate(40,60)"><path d="M262 34 a26 26 0 1 0 14 46 a20 20 0 1 1 -14 -46 Z" fill="#e8c977"/>
    <path d="M236 96 l5 13 13 5 -13 5 -5 13 -5 -13 -13 -5 13 -5 Z" fill="#ca9827"/>
    <path d="M22 76 l4 11 11 4 -11 4 -4 11 -4 -11 -11 -4 11 -4 Z" fill="#ca9827" opacity="0.85"/>
    <path d="M46 148 l3 8 8 3 -8 3 -3 8 -3 -8 -8 -3 8 -3 Z" fill="#ca9827" opacity="0.6"/>
    <path d="M284 150 l3.5 9 9 3.5 -9 3.5 -3.5 9 -3.5 -9 -9 -3.5 9 -3.5 Z" fill="#ca9827" opacity="0.7"/>
    <circle cx="70" cy="42" r="3" fill="#ca9827" opacity="0.5"/>
    <circle cx="296" cy="106" r="2.5" fill="#ca9827" opacity="0.45"/>
    <path d="M164 22 C150 78 96 170 42 232 C120 208 212 208 268 224 C236 170 196 96 186 30 C182 14 168 12 164 22 Z" fill="url(#hatg)"/>
    <path d="M164 22 C150 78 96 170 42 232 C74 222 108 216 142 214 C136 150 148 80 164 22 Z" fill="url(#hatshade)"/>
    <path d="M150 84 C138 130 116 178 92 218" stroke="#95701a" stroke-width="3" fill="none" opacity="0.5" stroke-linecap="round"/>
    <path d="M178 62 C186 118 204 168 228 212" stroke="#f0d489" stroke-width="3" fill="none" opacity="0.55" stroke-linecap="round"/>
    <path d="M166 100 C162 142 152 182 136 214" stroke="#a87f1e" stroke-width="2.5" fill="none" opacity="0.45" stroke-linecap="round"/>
    <path d="M164 22 C168 40 178 52 196 58 C186 66 172 64 164 54 C160 42 160 30 164 22 Z" fill="#8a6716"/>
    <path d="M168 30 C172 42 180 50 192 56 C184 58 174 54 168 46 Z" fill="#f0d489" opacity="0.5"/>
    <path d="M84 186 C136 168 204 170 246 186 C250 196 252 202 256 212 C196 194 116 194 66 214 C72 204 78 196 84 186 Z" fill="url(#bandg)"/>
    <path d="M88 190 C138 174 202 175 242 190" stroke="#e8c977" stroke-width="1.6" stroke-dasharray="5 5" fill="none" opacity="0.6"/>
    <path d="M72 208 C122 190 200 189 250 206" stroke="#e8c977" stroke-width="1.6" stroke-dasharray="5 5" fill="none" opacity="0.6"/>
    <path d="M163 176 l7.5 15 16 2.3 -11.6 11.3 2.7 16 -14.6 -7.6 -14.6 7.6 2.7 -16 -11.6 -11.3 16 -2.3 Z" fill="#f6eed3"/>
    <path d="M163 183 l5 10 11 1.6 -8 7.7 1.9 11 -9.9 -5.2 -9.9 5.2 1.9 -11 -8 -7.7 11 -1.6 Z" fill="#e8c977" opacity="0.8"/>
    <ellipse cx="158" cy="262" rx="128" ry="10" fill="#95701a" opacity="0.25"/>
    <path d="M20 240 C120 206 220 208 296 236 C308 242 306 254 292 256 C196 232 112 234 26 258 C10 260 8 246 20 240 Z" fill="url(#brimg)"/>
    <path d="M26 258 C112 234 196 232 292 256 C288 262 280 264 268 262 C186 244 122 246 44 262 C34 264 28 262 26 258 Z" fill="#8f6b18" opacity="0.7"/>
    <path d="M30 242 C124 210 216 212 288 238" stroke="#f0d489" stroke-width="3" fill="none" opacity="0.6" stroke-linecap="round"/></g>
  <g fill="#263048">
    <text x="410" y="220" font-family="Iowan Old Style, Palatino, Georgia, serif" font-size="124" font-weight="700" letter-spacing="8">QUIZARD</text>
    <rect x="416" y="252" width="810" height="4" fill="#ca9827"/>
    <text x="418" y="300" font-family="Iowan Old Style, Palatino, Georgia, serif" font-size="30" font-style="italic" letter-spacing="5" fill="#8a815f">MASTER THE MATH · ACE THE TEST</text>
  </g>
</svg>